<?xml version="1.0" encoding="UTF-8" standalone="no"?>
<svg
   xmlns:dc="http://purl.org/dc/elements/1.1/"
   xmlns:cc="http://creativecommons.org/ns#"
   xmlns:rdf="http://www.w3.org/1999/02/22-rdf-syntax-ns#"
   xmlns:svg="http://www.w3.org/2000/svg"
   xmlns="http://www.w3.org/2000/svg"
   xmlns:sodipodi="http://sodipodi.sourceforge.net/DTD/sodipodi-0.dtd"
   xmlns:inkscape="http://www.inkscape.org/namespaces/inkscape"
   width="696.70081"
   height="217"
   viewBox="0 0 184.33574 57.414529"
   version="1.1"
   id="svg17"
   inkscape:version="1.0.1 (3bc2e813f5, 2020-09-07)"
   sodipodi:docname="l1.svg">
  <defs
     id="defs11" />
  <sodipodi:namedview
     id="base"
     pagecolor="#ffffff"
     bordercolor="#666666"
     borderopacity="1.0"
     inkscape:pageopacity="0.0"
     inkscape:pageshadow="2"
     inkscape:zoom="0.35"
     inkscape:cx="400"
     inkscape:cy="560"
     inkscape:document-units="mm"
     inkscape:current-layer="layer1"
     inkscape:document-rotation="0"
     showgrid="false"
     units="px"
     inkscape:window-width="1920"
     inkscape:window-height="1007"
     inkscape:window-x="1368"
     inkscape:window-y="0"
     inkscape:window-maximized="1" />
  <metadata
     id="metadata14">
    <rdf:RDF>
      <cc:Work
         rdf:about="">
        <dc:format>image/svg+xml</dc:format>
        <dc:type
           rdf:resource="http://purl.org/dc/dcmitype/StillImage" />
        <dc:title></dc:title>
      </cc:Work>
    </rdf:RDF>
  </metadata>
  <g
     inkscape:label="Layer 1"
     inkscape:groupmode="layer"
     id="layer1">
    <path
       id="path264"
       style="fill:#333333;stroke-width:0.705554"
       d="m 104.03134,1.4759763 c -0.54144,0 -0.38275,4.58023 0.23617,6.81767 0.31374,1.13424 0.98837,2.8234797 1.49913,3.7537697 1.30159,2.37115 1.67055,3.882621 1.27227,5.212091 -0.31017,1.03533 -0.23278,1.22654 0.97824,2.41639 l 1.31517,1.29191 -0.90125,0.89607 c -4.26395,4.23945 -5.14062,7.87122 -2.67166,11.06496 4.03688,5.22192 4.41997,5.96497 4.70408,9.11985 l 0.26874,2.98225 2.7001,3.94653 c 1.48508,2.1707 3.08983,4.20958 3.56619,4.53047 0.7439,0.50109 1.16977,0.55831 3.01892,0.40566 2.18138,-0.18007 2.83239,-0.528 2.84324,-1.51825 0.003,-0.29086 1.02089,-1.95589 2.26136,-3.70003 2.23862,-3.14755 2.25822,-3.19501 2.60448,-6.37791 0.41511,-3.81576 0.54113,-4.09231 3.52124,-7.71064 2.11984,-2.57386 2.32841,-2.96954 2.45618,-4.66535 0.11366,-1.50889 -0.0773,-2.33829 -1.02836,-4.46743 -0.64243,-1.43807 -1.59022,-3.02972 -2.10582,-3.53673 -1.1304,-1.11151 -1.15551,-1.46151 -0.1855,-2.56005 0.56015,-0.63436 0.74639,-1.32383 0.7493,-2.759 0.002,-1.52977 0.35021,-2.683061 1.73789,-5.751081 1.62243,-3.5871197 1.72516,-3.9868097 1.57509,-6.1314097 -0.21222,-3.03194 -0.40039,-3.21821 -2.11873,-2.09444 -3.32107,2.17197 -7.73319,7.7297597 -9.25732,11.6618197 -1.08606,2.801971 -1.27339,3.064881 -1.90428,2.672191 -0.52525,-0.32693 -2.51696,-0.43906 -4.054,-0.22841 -0.55166,0.0756 -0.87636,-0.35894 -1.72342,-2.303221 -1.20266,-2.76052 -3.25464,-5.9108297 -5.37901,-8.2589297 -1.5054,-1.66398 -5.37117,-4.70875 -5.97844,-4.70875 z m 1.88256,3.38274 c 0.99481,0 4.77568,4.4607 6.45181,7.6119297 0.92467,1.73836 2.60761,6.322651 2.60761,7.102931 0,0.70672 0.723,0.63426 1.86602,-0.18707 1.36478,-0.98063 2.94982,-0.99825 4.60542,-0.0512 0.74485,0.42609 1.44243,0.66825 1.54977,0.53795 0.10737,-0.13029 0.62418,-1.50711 1.14877,-3.05924 1.3575,-4.016481 3.08229,-6.9154007 5.97998,-10.0521007 2.21041,-2.39267 2.7935,-2.07625 1.0387,0.56379 -2.41596,3.6348497 -4.22267,8.4763007 -4.7072,12.6152507 -0.12706,1.08535 -0.31999,2.51242 -0.42892,3.17138 -0.24069,1.45553 0.18701,1.53494 1.13739,0.21136 0.38968,-0.54267 0.86196,-0.98651 1.04955,-0.98651 0.49668,0 3.21583,4.47867 3.72639,6.13762 l 0.43617,1.41748 -2.24227,2.96623 c -1.23332,1.63151 -2.65054,3.86504 -3.14915,4.96352 -0.49863,1.09848 -1.06457,1.95815 -1.2573,1.90996 -0.39891,-0.0997 -2.80871,-4.87333 -2.83961,-5.62498 -0.0151,-0.36688 0.27776,-0.49351 1.14308,-0.49351 1.27918,0 3.12298,-0.85051 3.75068,-1.73013 0.30903,-0.43311 0.25373,-0.73237 -0.23873,-1.29604 -0.60693,-0.69472 -0.60423,-0.75216 0.0455,-1.10846 0.37695,-0.20673 0.91662,-0.37569 1.19941,-0.37569 0.28186,0 0.40939,-0.12711 0.28162,-0.28215 -0.12777,-0.15505 -0.66022,-0.28164 -1.18338,-0.28164 -1.00123,0 -2.00313,0.7051 -3.00294,2.11409 -0.92821,1.30808 -2.06481,2.11408 -2.98069,2.11408 -0.76517,0 -1.29034,0.47631 -1.29034,1.16995 0,0.15282 0.30927,0.20407 0.68677,0.11421 0.60267,-0.14346 0.78584,0.19292 1.50326,2.75745 1.32869,4.7491 0.98444,6.01409 -1.43248,5.26325 -0.64818,-0.20137 -1.64142,-0.26966 -2.34971,-0.16175 -2.95516,0.45021 -3.50065,0.46725 -3.95171,0.12351 -0.6708,-0.51116 -0.54978,-1.95046 0.43616,-5.1785 0.62717,-2.05355 1.029,-2.84417 1.4795,-2.91042 0.88625,-0.13032 0.0857,-1.1777 -0.90022,-1.1777 -0.48498,0 -1.18345,-0.51418 -2.01072,-1.48002 -1.72125,-2.00959 -3.05012,-3.0303 -3.94497,-3.0303 -1.25225,0 -1.29558,0.55968 -0.0682,0.88056 1.25942,0.32929 1.37882,0.55002 0.72448,1.33584 -1.03227,1.23971 0.63222,2.78183 3.37656,3.12849 1.18698,0.14995 1.3639,0.27008 1.28157,0.86817 -0.18955,1.37654 -2.17388,5.48597 -2.64893,5.48597 -0.26512,0 -0.95653,-1.01477 -1.53636,-2.25517 -1.29021,-2.76002 -2.44017,-4.48306 -3.8535,-5.77277 -0.91437,-0.83436 -1.07595,-1.23363 -1.08468,-2.67839 -0.009,-1.4786 0.21952,-2.03405 1.77249,-4.30516 0.98076,-1.43421 1.91246,-2.6076 2.07016,-2.6076 0.15771,0 0.63478,0.51173 1.06039,1.1374 0.42556,0.62568 0.91207,1.07365 1.08109,0.99529 0.35713,-0.16553 0.20161,-1.888 -0.56121,-6.21047 -0.62459,-3.53924 -2.87495,-8.9289807 -4.85967,-11.6385707 -0.70983,-0.96906 -1.14533,-1.76216 -0.9674,-1.76216 z m -74.678116,2.31355 c -0.15505,-0.0203 -0.3116,-0.0117 -0.47131,0.0269 -1.06455,0.25741 -2.25906,1.84251 -3.93464,5.0027997 -1.878067,3.542721 -2.42885,5.195401 -1.849995,5.553151 0.570445,0.35254 0.01455,1.72831 -1.804564,4.46897 -1.972416,2.97163 -3.048793,3.95997 -4.314454,3.95997 -1.563212,0 -2.442713,0.98352 -5.458593,6.1066 -0.305858,0.51964 1.24722,1.62425 4.282943,3.04633 4.299056,2.01384 4.832138,2.11753 5.468938,1.06402 2.118675,-3.50503 2.256735,-3.37737 1.61745,1.49138 -0.351843,2.67953 -1.097703,6.66392 -1.657773,8.85424 -0.560017,2.19032 -1.018011,4.18681 -1.018011,4.43642 0,0.25093 2.916661,0.36275 6.481759,0.25115 l 6.48179,-0.20309 0.91311,-3.52795 c 1.22549,-4.73635 1.17586,-5.29167 -0.47128,-5.29167 -1.21174,0 -1.41213,-0.4734 -1.4206,-3.35121 -0.005,-1.84325 -0.18759,-4.01436 -0.40513,-4.82452 -0.34697,-1.29238 -0.14068,-1.43553 1.68309,-1.16788 2.26383,0.33226 4.25411,-1.29013 9.62578,-7.84552 l 2.73781,-3.34036 -3.08251,-3.1409 c -1.69518,-1.72734 -3.41304,-3.13611 -3.81733,-3.13056 -0.40428,0.006 -1.61292,1.60234 -2.68612,3.54811 -2.07682,3.7653 -4.90567,5.74227 -6.26785,4.38009 -0.55981,-0.55977 0.12544,-2.25248 2.48822,-6.14433 1.79366,-2.954381 3.26131,-5.639341 3.26131,-5.966561 0,-0.32721 -0.9421,-0.98504 -2.09341,-1.4619197 -1.15131,-0.47689 -2.45994,-1.30917 -2.90836,-1.8495 -0.46558,-0.56099 -0.91519,-0.88318 -1.38027,-0.94413 z m 39.1387,7.7225307 c -0.69279,0 -1.00558,0.46448 -0.83201,1.23506 0.31887,1.41543 -2.69378,7.9375 -3.66644,7.9375 -1.13808,0 -3.56359,-4.03626 -3.56359,-5.92987 0,-1.12417 -0.39291,-1.83141 -1.01701,-1.83141 -1.53183,0 -1.94532,1.17024 -0.81338,2.30219 0.55282,0.55278 1.20811,2.56306 1.45624,4.46691 0.24807,1.90384 0.60097,4.18642 0.78444,5.07255 0.32565,1.57253 0.51538,1.60655 7.89926,1.41129 l 7.56545,-0.19999 0.586,-4.86999 c 0.32231,-2.67838 1.03933,-5.32332 1.59369,-5.87768 1.13443,-1.1344 0.72302,-2.30528 -0.81029,-2.30528 -0.64865,0 -1.01698,0.73184 -1.01698,2.02158 0,1.99712 -2.32434,5.7397 -3.56465,5.7397 -0.96578,0 -3.49073,-5.33866 -3.49073,-7.38042 0,-1.15964 -0.39166,-1.79214 -1.11,-1.79214 z m 73.946896,7.45535 c -0.9325,0.12788 -1.56144,0.9284 -2.60086,2.49908 -1.46098,2.20762 -1.71884,3.0634 -1.04748,3.47834 1.43785,0.88863 -3.35225,7.89884 -5.03278,7.36544 -0.94419,-0.29961 -1.59419,0.18317 -2.43498,1.80919 -0.63088,1.22 -1.04445,2.29031 -0.91882,2.37815 1.29693,0.90705 5.72603,3.23701 6.15312,3.23701 0.30358,0 0.93194,-0.8349 1.39682,-1.85518 0.46487,-1.02029 1.01004,-1.69056 1.21129,-1.48932 0.33305,0.33306 -1.27411,7.42446 -2.27169,10.0242 -0.3483,0.90762 0.37835,1.08107 4.53046,1.08107 4.91257,0 4.95059,-0.0144 5.72005,-2.22157 1.02034,-2.92692 0.97928,-3.42253 -0.28368,-3.42253 -0.78158,0 -1.05834,-0.81786 -1.05834,-3.12746 0,-2.51417 0.27861,-3.21581 1.42008,-3.57807 2.17768,-0.6912 4.92992,-5.2424 4.92992,-8.15196 0,-2.74328 -1.53225,-4.62251 -5.29166,-6.49005 -2.25301,-1.11919 -3.48893,-1.66421 -4.42145,-1.53634 z m -93.412376,0.5209 c -1.13318,0.10153 -1.81726,0.97557 -2.25983,2.78381 -0.46974,1.91932 -0.43699,1.93994 3.01842,1.93994 3.07604,0 3.67302,-0.25279 5.00023,-2.11667 l 1.50738,-2.11667 -2.34146,-0.009 c -1.28762,-0.005 -2.97608,-0.16847 -3.75221,-0.36225 -0.2331,-0.0582 -0.45223,-0.0968 -0.65887,-0.11575 -0.18084,-0.0166 -0.35179,-0.0176 -0.51366,-0.003 z m 73.654426,3.78272 c -0.20198,0.0177 -0.73089,0.35202 -1.27281,0.81494 -1.51055,1.29035 -3.44058,2.04618 -4.64468,1.81952 -0.52302,-0.0985 -1.81718,-0.76308 -2.87578,-1.47691 -2.81771,-1.90001 -2.34794,-1.01784 0.7679,1.44229 l 2.69235,2.12597 1.28778,-0.92656 c 1.97207,-1.41964 4.34845,-3.60916 4.11086,-3.78737 -0.0146,-0.0109 -0.0368,-0.0144 -0.0656,-0.0119 z m -22.74022,0.33228 -5.345946,0.0212 c -4.974,0.0195 -5.52177,0.17527 -7.87185,2.23862 -1.38917,1.21973 -3.10399,3.49015 -3.81064,5.04569 -1.57337,3.46333 -1.70513,9.36714 -0.25527,11.43703 1.25847,1.79672 5.40655,3.31031 7.81193,2.85047 1.40653,-0.26887 1.71101,-0.0408 1.71101,1.28209 0,1.59189 0.0308,1.59733 2.82255,0.50075 l 2.822074,-1.10898 0.008,-3.94963 c 0.004,-2.17244 0.21217,-5.1875 0.461992,-6.69985 l 0.45423,-2.7497 -2.049495,0.55603 c -1.12723,0.30586 -3.160361,0.75373 -4.518581,0.99529 -1.90187,0.33824 -2.52417,0.82378 -2.70732,2.1115 -0.20738,1.45828 -0.004,1.62729 1.5875,1.32292 2.08439,-0.39841 2.49801,0.55823 0.51366,1.18804 -3.58917,1.13913 -4.77239,-2.31586 -2.22414,-6.49521 1.60642,-2.63477 3.88194,-3.03697 4.46948,-0.79013 0.27209,1.04034 0.74948,1.36604 1.551331,1.05833 0.63701,-0.24442 1.92606,-0.44442 2.864435,-0.44442 1.6128,0 1.70585,-0.22887 1.70585,-4.18475 z m 55.9444,1.13791 c -0.27517,-0.097 -0.86612,1.64957 -1.3131,3.8809 -0.7692,3.83984 -0.73843,4.0566 0.57565,4.0566 1.02875,0 1.26682,0.31792 0.91832,1.22628 -0.25877,0.67432 -0.65048,3.15163 -0.87025,5.50509 -0.4545,4.86738 0.8258,7.1404 3.58789,6.37068 4.72926,-1.31789 4.65709,-1.32225 4.65709,0.30282 0,1.1348 0.30546,1.44596 1.11619,1.13481 0.61378,-0.23553 1.83865,-0.42839 2.72183,-0.42839 1.54712,0 1.62345,-0.28985 2.08462,-7.9375 0.26326,-4.36562 0.66098,-8.96923 0.88419,-10.23039 0.38433,-2.17174 0.29268,-2.2934 -1.7317,-2.2934 -3.93843,0 -4.24683,0.41443 -4.76869,6.39755 -0.28813,3.30262 -0.87768,5.89865 -1.44643,6.37067 -1.78234,1.47923 -1.97093,-1.45896 -0.50953,-7.93854 l 1.40766,-6.24044 h -3.40701 c -1.87373,0 -3.63162,-0.0797 -3.90673,-0.17674 z m -105.146566,2.32079 c -1.18634,-0.0443 -2.71587,0.0903 -4.33152,0.41341 -2.0584,0.41169 -2.20504,0.64213 -2.20504,3.46904 0,1.66539 0.31679,3.13399 0.70382,3.26337 0.45069,0.15055 0.32401,2.39202 -0.35189,6.23218 -0.58061,3.2985 -1.05627,6.23517 -1.05627,6.52621 0,0.64405 2.57167,0.68511 5.55521,0.0884 2.09926,-0.41984 2.20451,-0.60226 2.20451,-3.80286 0,-1.84891 0.48991,-5.94462 1.08882,-9.10177 0.59891,-3.15716 0.89783,-6.04984 0.66405,-6.42804 -0.2426,-0.39253 -1.08538,-0.61559 -2.27169,-0.6599 z m 94.119306,0.76275 c 0.18368,-0.0285 0.2036,0.31551 0.21498,1.00872 0.013,0.79549 -0.35753,1.82774 -0.8232,2.2934 -2.13545,2.13545 -2.63252,0.38086 -0.58756,-2.07378 0.66506,-0.79829 1.01211,-1.19979 1.19578,-1.22834 z m -80.913926,0.62063 c -3.771,0 -3.87413,0.13898 -3.07525,4.1336 0.2413,1.20633 0.68784,2.03948 0.99269,1.85105 0.30485,-0.18839 0.66289,1.40485 0.79581,3.54035 0.13298,2.13555 0.004,3.88195 -0.28731,3.88142 -0.29104,-5.3e-4 -0.52916,1.22291 -0.52916,2.71818 v 2.71818 l 3.70416,-0.33952 c 2.03729,-0.18695 3.81429,-0.43563 3.94859,-0.55242 0.1343,-0.11673 -0.064,-1.65757 -0.44079,-3.42408 -0.86424,-4.05224 0.0776,-3.60193 1.3286,0.63511 0.89958,3.04677 1.05397,3.18275 3.60804,3.18275 h 2.66806 v -8.05636 c 0,-4.43086 -0.19235,-8.55822 -0.42788,-9.17205 -0.29194,-0.76073 -1.32824,-1.11621 -3.25509,-1.11621 h -2.82723 l 0.43823,3.35173 0.4382,3.35122 -1.78284,-3.35122 c -1.76102,-3.31115 -1.82491,-3.35173 -5.29683,-3.35173 z m 47.079836,10.69185 c 0.20852,0.002 0.4174,0.29634 0.493,0.88315 0.11128,0.86475 1.63367,2.05053 2.63239,2.05053 0.63148,0 2.24509,1.6237 2.50888,2.52439 0.13613,0.46538 0.13888,1.10235 0.006,1.41593 -0.25763,0.60872 -0.67064,0.6742 -1.9017,0.30024 -1.14636,-0.34821 -4.3783,-5.15889 -4.23127,-6.29832 0.0756,-0.5857 0.28395,-0.87746 0.4925,-0.87592 z m 12.61988,0.15968 c 0.21842,-0.0403 0.3478,0.2444 0.3478,0.86145 0,1.13651 -2.74966,5.41018 -3.85403,5.99033 -0.4532,0.23806 -0.91313,0.42256 -1.02216,0.41031 -2.31574,-0.25993 -1.0287,-3.76173 1.69653,-4.61574 1.00727,-0.31564 1.50667,-0.71497 1.94821,-1.55804 0.35774,-0.68307 0.66527,-1.04801 0.88365,-1.08831 z m -7.26466,8.20415 c 1.34908,-0.003 3.11782,0.12612 3.38378,0.32556 0.14023,0.10522 0.0747,0.40738 -0.14573,0.67128 -0.39616,0.47416 -2.6099,0.71914 -3.95687,0.4377 -0.71107,-0.14857 -1.18081,-0.8591 -0.84077,-1.27175 0.0918,-0.11139 0.75015,-0.16084 1.55959,-0.16279 z" />
  </g>
</svg>
