<?xml version="1.0" encoding="UTF-8" standalone="no"?>
<svg
   xmlns:dc="http://purl.org/dc/elements/1.1/"
   xmlns:cc="http://creativecommons.org/ns#"
   xmlns:rdf="http://www.w3.org/1999/02/22-rdf-syntax-ns#"
   xmlns:svg="http://www.w3.org/2000/svg"
   xmlns="http://www.w3.org/2000/svg"
   xmlns:sodipodi="http://sodipodi.sourceforge.net/DTD/sodipodi-0.dtd"
   xmlns:inkscape="http://www.inkscape.org/namespaces/inkscape"
   width="209.70081"
   height="349"
   viewBox="0 0 55.483486 92.339485"
   version="1.1"
   id="svg17"
   inkscape:version="1.0.1 (3bc2e813f5, 2020-09-07)"
   sodipodi:docname="L2.svg">
  <defs
     id="defs11" />
  <sodipodi:namedview
     id="base"
     pagecolor="#ffffff"
     bordercolor="#666666"
     borderopacity="1.0"
     inkscape:pageopacity="0.0"
     inkscape:pageshadow="2"
     inkscape:zoom="0.35"
     inkscape:cx="400"
     inkscape:cy="560"
     inkscape:document-units="mm"
     inkscape:current-layer="layer1"
     inkscape:document-rotation="0"
     showgrid="false"
     units="px"
     inkscape:window-width="1920"
     inkscape:window-height="1007"
     inkscape:window-x="1368"
     inkscape:window-y="0"
     inkscape:window-maximized="1" />
  <metadata
     id="metadata14">
    <rdf:RDF>
      <cc:Work
         rdf:about="">
        <dc:format>image/svg+xml</dc:format>
        <dc:type
           rdf:resource="http://purl.org/dc/dcmitype/StillImage" />
        <dc:title></dc:title>
      </cc:Work>
    </rdf:RDF>
  </metadata>
  <g
     inkscape:label="Layer 1"
     inkscape:groupmode="layer"
     id="layer1">
    <path
       style="fill:#333333;stroke-width:0.521219"
       d="m 24.543762,87.973629 c -0.76275,-0.51381 -3.33238,-3.77793 -5.7103,-7.25361 l -4.32336,-6.31939 -0.42989,-4.77496 c -0.45493,-5.05154 -1.06871,-6.24152 -7.5324898,-14.60275 -3.953248,-5.11374 -2.54911,-10.92829 4.2782098,-17.7164 l 1.44294,-1.43465 -2.10561,-2.0689 c -1.9390598,-1.90517 -2.0629598,-2.21138 -1.5663398,-3.86913 0.63773,-2.12871 0.0466,-4.5487 -2.03751,-8.34532 -0.8178,-1.489566 -1.89796,-4.194231 -2.40033,-6.010356 -0.991,-3.582543 -1.244758,-10.9165907 -0.3778,-10.9165907 0.97235,0 7.1620798,4.8752049 9.5724898,7.5395287 3.40149,3.759727 6.68672,8.804108 8.61241,13.224208 1.35628,3.11313 1.87688,3.80864 2.76017,3.68758 2.46113,-0.33728 5.64997,-0.15747 6.491,0.366 1.01019,0.62876 1.31014,0.20778 3.049117,-4.27867 2.44042,-6.29593 9.50443,-15.195227 14.82206,-18.6729428 2.75136,-1.7993519 3.0533,-1.5008619 3.39311,3.353817 0.24029,3.4338708 0.0758,4.0740788 -2.52202,9.8176978 -2.22192,4.912438 -2.77985,6.758508 -2.78305,9.207948 -0.005,2.29796 -0.30284,3.40209 -1.19975,4.41781 -1.55316,1.75896 -1.51252,2.31939 0.29744,4.09911 0.82556,0.81182 2.34263,3.35998 3.37128,5.6626 1.52289,3.40911 1.82861,4.73754 1.64663,7.15355 -0.20457,2.71529 -0.53821,3.349 -3.93245,7.4702 -4.77167,5.79358 -4.97397,6.23643 -5.63863,12.34614 -0.55441,5.0964 -0.5855,5.17242 -4.16992,10.21221 -1.98623,2.79267 -3.61543,5.45862 -3.62051,5.92433 -0.0175,1.58557 -1.059867,2.14221 -4.552667,2.43055 -2.9608,0.24442 -3.6431,0.15273 -4.83423,-0.64961 z m 7.20707,-2.60525 c 0.35304,-0.42255 0.45805,-0.90611 0.23353,-1.07457 -0.68131,-0.51095 -7.52352,-0.73624 -7.91543,-0.26063 -0.54446,0.66073 0.20733,1.79785 1.34589,2.03574 2.15673,0.45064 5.7017,0.0587 6.33601,-0.70054 z m -4.72787,-3.98142 c 0.21246,-0.5021 0.2078,-1.52258 -0.01,-2.26774 -0.42238,-1.44217 -3.00588,-4.04151 -4.01699,-4.04151 -1.59914,0 -4.03699,-1.89889 -4.21524,-3.2835 -0.24202,-1.87919 -1.33557,-1.88731 -1.57756,-0.0117 -0.23542,1.82442 4.93901,9.52719 6.77454,10.08475 1.97115,0.59878 2.63316,0.49438 3.04567,-0.48029 z m 5.56102,0.21986 c 1.768297,-0.92893 6.170677,-7.77208 6.170677,-9.59182 0,-1.97603 -0.82603,-1.82362 -1.97165,0.3638 -0.70697,1.3499 -1.50617,1.98905 -3.119,2.49446 -4.363567,1.36741 -6.424697,6.97477 -2.716797,7.39098 0.1746,0.0196 0.9111,-0.27624 1.63677,-0.65742 z m -4.8046,-12.20217 c 1.13411,-0.17277 2.72421,-0.0632 3.76206,0.25921 3.869907,1.20223 4.421197,-0.82315 2.293727,-8.42731 -1.148707,-4.10627 -1.442377,-4.64474 -2.407367,-4.41503 -0.60444,0.14388 -1.09897,0.0614 -1.09897,-0.18328 0,-1.11065 0.84077,-1.87288 2.06595,-1.87288 1.466477,0 3.286417,-1.29091 4.772637,-3.38539 1.60089,-2.25603 3.20474,-3.38539 4.80791,-3.38539 0.83773,0 1.69048,0.20312 1.89506,0.45139 0.20457,0.24825 0,0.45138 -0.45133,0.45138 -0.45278,0 -1.31702,0.27083 -1.92061,0.60184 -1.04032,0.57051 -1.04413,0.6629 -0.0723,1.77527 0.78854,0.90253 0.87664,1.3816 0.38184,2.07509 -1.00507,1.40842 -3.95677,2.76997 -6.00496,2.76997 -1.38552,0 -1.85476,0.20248 -1.83061,0.78993 0.0495,1.20353 3.90838,8.84683 4.54711,9.00652 0.30859,0.0772 1.21436,-1.29878 2.01277,-3.05764 0.79836,-1.75885 3.0674,-5.3353 5.04218,-7.94763 l 3.59053,-4.74972 -0.69853,-2.26955 c -0.81748,-2.65626 -5.17158,-9.82733 -5.96686,-9.82733 -0.30036,0 -1.05657,0.71093 -1.68051,1.57985 -1.52173,2.11928 -2.20628,1.99201 -1.82092,-0.33854 0.17444,-1.05511 0.48361,-3.34025 0.68705,-5.07809 0.77581,-6.6272 3.66821,-14.379456 7.53659,-20.1995 2.80975,-4.2271758 1.87648,-4.7338558 -1.66278,-0.90277 -4.63969,5.022411 -7.40144,9.66481 -9.57502,16.0959 -0.83998,2.48524 -1.66791,4.68931 -1.83981,4.89794 -0.17188,0.20864 -1.288307,-0.17888 -2.480947,-0.86112 -2.65092,-1.51647 -5.18868,-1.4883 -7.37393,0.0819 -1.83018,1.31509 -2.98815,1.4312 -2.98815,0.29961 0,-1.24936 -2.695,-8.59022 -4.17553,-11.37364 -2.68381,-5.045685 -8.7370898,-12.187412 -10.3299298,-12.187412 -0.28491,0 0.4119,1.269523 1.54845,2.821159 3.1778898,4.338528 6.7816198,12.968923 7.7816698,18.635873 1.2214,6.92104 1.47064,9.67866 0.89879,9.94371 -0.27061,0.12547 -1.04968,-0.59154 -1.73109,-1.59336 -0.68146,-1.00181 -1.44563,-1.82148 -1.69818,-1.82148 -0.25249,0 -1.74392,1.87889 -3.31428,4.17532 -2.4865898,3.63645 -2.8529498,4.52612 -2.8387698,6.89363 0.014,2.31331 0.27262,2.95219 1.7367,4.28816 2.2629798,2.06505 4.1048598,4.82411 6.1706998,9.2434 0.92843,1.98609 2.03534,3.61108 2.45981,3.61108 0.76065,0 3.93791,-6.58054 4.24141,-8.78463 0.13184,-0.95765 -0.15153,-1.14955 -2.05214,-1.38964 -4.39415,-0.55507 -7.05888,-3.02415 -5.40603,-5.00914 1.0477,-1.25824 0.85585,-1.61185 -1.16075,-2.13909 -1.96525,-0.5138 -1.89569,-1.41 0.10938,-1.41 1.43282,0 3.56087,1.63468 6.31688,4.8524 1.32461,1.54647 2.44319,2.36977 3.21975,2.36977 1.57858,0 2.86036,1.67694 1.44132,1.88561 -0.72134,0.10608 -1.36465,1.37139 -2.36885,4.65948 -1.57866,5.16866 -1.77292,7.47353 -0.69884,8.29198 0.72223,0.55039 1.59602,0.52308 6.32776,-0.19778 z m -3.97267,-20.26582 c -4.98902,-3.9391 -5.74094,-5.35173 -1.22931,-2.30948 1.695,1.14297 3.76714,2.20712 4.6046,2.36477 1.92797,0.36291 5.01773,-0.84778 7.436387,-2.91386 0.99169,-0.8471 1.95615,-1.42542 2.14311,-1.28516 0.38041,0.28533 -3.424267,3.79037 -6.581917,6.06348 l -2.06169,1.48415 z"
       id="path236-8" />
  </g>
</svg>
