<?xml version="1.0" encoding="UTF-8" standalone="no"?>
<!-- Created with Inkscape (http://www.inkscape.org/) -->

<svg
   version="1.1"
   id="svg2"
   width="986.66669"
   height="986.66669"
   viewBox="0 0 986.66669 986.66669"
   sodipodi:docname="LOGOS_KINGURU.svg"
   xml:space="preserve"
   inkscape:version="1.2.2 (732a01da63, 2022-12-09)"
   xmlns:inkscape="http://www.inkscape.org/namespaces/inkscape"
   xmlns:sodipodi="http://sodipodi.sourceforge.net/DTD/sodipodi-0.dtd"
   xmlns="http://www.w3.org/2000/svg"
   xmlns:svg="http://www.w3.org/2000/svg"><defs
     id="defs6" /><sodipodi:namedview
     id="namedview4"
     pagecolor="#ffffff"
     bordercolor="#000000"
     borderopacity="0.25"
     inkscape:showpageshadow="2"
     inkscape:pageopacity="0.0"
     inkscape:pagecheckerboard="0"
     inkscape:deskcolor="#d1d1d1"
     showgrid="false"
     inkscape:zoom="0.59984631"
     inkscape:cx="833.54684"
     inkscape:cy="451.78239"
     inkscape:window-width="1920"
     inkscape:window-height="1017"
     inkscape:window-x="-8"
     inkscape:window-y="-8"
     inkscape:window-maximized="1"
     inkscape:current-layer="g8" /><g
     inkscape:groupmode="layer"
     inkscape:label="Image"
     id="g8"><path
       id="path264"
       style="fill:#ffffff;stroke-width:2.66666"
       d="M 1426.5625 637.79492 C 1424.5161 637.79492 1425.1159 655.10603 1427.4551 663.5625 C 1428.6409 667.84941 1431.1907 674.23392 1433.1211 677.75 C 1438.0405 686.7118 1439.435 692.42447 1437.9297 697.44922 C 1436.7574 701.36228 1437.0499 702.08495 1441.627 706.58203 L 1446.5977 711.46484 L 1443.1914 714.85156 C 1427.0757 730.87467 1423.7623 744.60105 1433.0938 756.67188 C 1448.3513 776.40829 1449.7992 779.21665 1450.873 791.14062 L 1451.8887 802.41211 L 1462.0938 817.32812 C 1467.7067 825.53235 1473.7719 833.23834 1475.5723 834.45117 C 1478.3839 836.34506 1479.9935 836.56132 1486.9824 835.98438 C 1495.227 835.30377 1497.6875 833.98878 1497.7285 830.24609 C 1497.7405 829.1468 1501.587 822.85374 1506.2754 816.26172 C 1514.7363 804.36547 1514.8104 804.18612 1516.1191 792.15625 C 1517.688 777.73447 1518.1643 776.68923 1529.4277 763.01367 C 1537.4397 753.28571 1538.228 751.79022 1538.7109 745.38086 C 1539.1405 739.67795 1538.4189 736.5432 1534.8242 728.49609 C 1532.3961 723.06085 1528.8139 717.04516 1526.8652 715.12891 C 1522.5928 710.92792 1522.4979 709.60509 1526.1641 705.45312 C 1528.2812 703.05556 1528.9851 700.44966 1528.9961 695.02539 C 1529.0036 689.24359 1530.3197 684.88472 1535.5645 673.28906 C 1541.6965 659.73144 1542.0848 658.22078 1541.5176 650.11523 C 1540.7155 638.65593 1540.0043 637.9519 1533.5098 642.19922 C 1520.9577 650.40825 1504.282 671.41406 1498.5215 686.27539 C 1494.4167 696.8655 1493.7087 697.85918 1491.3242 696.375 C 1489.339 695.13936 1481.8113 694.71557 1476.002 695.51172 C 1473.917 695.79746 1472.6898 694.15508 1469.4883 686.80664 C 1464.9428 676.37316 1457.1873 664.46651 1449.1582 655.5918 C 1443.4685 649.30274 1428.8577 637.79492 1426.5625 637.79492 z M 1433.6777 650.58008 C 1437.4376 650.58008 1451.7275 667.43944 1458.0625 679.34961 C 1461.5573 685.91978 1467.918 703.24624 1467.918 706.19531 C 1467.918 708.86638 1470.6506 708.5925 1474.9707 705.48828 C 1480.1289 701.78196 1486.1196 701.71535 1492.377 705.29492 C 1495.1922 706.90533 1497.8287 707.82059 1498.2344 707.32812 C 1498.6402 706.83566 1500.5935 701.63195 1502.5762 695.76562 C 1507.7069 680.58525 1514.2258 669.62868 1525.1777 657.77344 C 1533.532 648.73029 1535.7358 649.92619 1529.1035 659.9043 C 1519.9723 673.64232 1513.1438 691.9407 1511.3125 707.58398 C 1510.8323 711.68609 1510.1031 717.07975 1509.6914 719.57031 C 1508.7817 725.07151 1510.3982 725.37165 1513.9902 720.36914 C 1515.463 718.3181 1517.248 716.64062 1517.957 716.64062 C 1519.8342 716.64062 1530.1113 733.56787 1532.041 739.83789 L 1533.6895 745.19531 L 1525.2148 756.40625 C 1520.5534 762.57259 1515.197 771.01429 1513.3125 775.16602 C 1511.4279 779.31774 1509.2889 782.56691 1508.5605 782.38477 C 1507.0528 782.00782 1497.9449 763.9659 1497.8281 761.125 C 1497.7711 759.73835 1498.8779 759.25977 1502.1484 759.25977 C 1506.9831 759.25977 1513.9518 756.04523 1516.3242 752.7207 C 1517.4922 751.08374 1517.2832 749.95267 1515.4219 747.82227 C 1513.128 745.19657 1513.1382 744.97948 1515.5938 743.63281 C 1517.0185 742.85148 1519.0582 742.21289 1520.127 742.21289 C 1521.1923 742.21289 1521.6743 741.73248 1521.1914 741.14648 C 1520.7085 740.56046 1518.6961 740.08203 1516.7188 740.08203 C 1512.9346 740.08203 1509.1479 742.74698 1505.3691 748.07227 C 1501.8609 753.01622 1497.5651 756.0625 1494.1035 756.0625 C 1491.2115 756.0625 1489.2266 757.86272 1489.2266 760.48438 C 1489.2266 761.06194 1490.3955 761.25565 1491.8223 760.91602 C 1494.1001 760.37381 1494.7924 761.64518 1497.5039 771.33789 C 1502.5257 789.28726 1501.2246 794.0683 1492.0898 791.23047 C 1489.64 790.4694 1485.886 790.21131 1483.209 790.61914 C 1472.0399 792.32071 1469.9782 792.38513 1468.2734 791.08594 C 1465.7381 789.15401 1466.1955 783.71413 1469.9219 771.51367 C 1472.2923 763.75224 1473.811 760.76406 1475.5137 760.51367 C 1478.8633 760.02111 1475.8375 756.0625 1472.1113 756.0625 C 1470.2783 756.0625 1467.6384 754.11915 1464.5117 750.46875 C 1458.0062 742.87344 1452.9837 739.01562 1449.6016 739.01562 C 1444.8687 739.01562 1444.7049 741.13095 1449.3438 742.34375 C 1454.1038 743.58829 1454.5551 744.42255 1452.082 747.39258 C 1448.1805 752.07809 1454.4715 757.90657 1464.8438 759.2168 C 1469.33 759.78352 1469.9987 760.23755 1469.6875 762.49805 C 1468.9711 767.70072 1461.4713 783.23242 1459.6758 783.23242 C 1458.6738 783.23242 1456.0606 779.39709 1453.8691 774.70898 C 1448.9927 764.27739 1444.6464 757.76511 1439.3047 752.89062 C 1435.8488 749.73713 1435.2381 748.22807 1435.2051 742.76758 C 1435.1716 737.17916 1436.0348 735.07984 1441.9043 726.49609 C 1445.6111 721.07547 1449.1325 716.64062 1449.7285 716.64062 C 1450.3246 716.64062 1452.1277 718.57471 1453.7363 720.93945 C 1455.3447 723.30421 1457.1835 724.99733 1457.8223 724.70117 C 1459.1721 724.07553 1458.5843 717.5654 1455.7012 701.22852 C 1453.3406 687.85187 1444.8353 667.48118 1437.334 657.24023 C 1434.6512 653.57765 1433.0052 650.58008 1433.6777 650.58008 z M 1151.4297 659.32422 C 1150.8437 659.24743 1150.252 659.27985 1149.6484 659.42578 C 1145.6249 660.39868 1141.1102 666.38958 1134.7773 678.33398 C 1127.6791 691.7238 1125.5974 697.97015 1127.7852 699.32227 C 1129.9412 700.65473 1127.8402 705.85447 1120.9648 716.21289 C 1113.51 727.44425 1109.4418 731.17969 1104.6582 731.17969 C 1098.75 731.17969 1095.4259 734.89695 1084.0273 754.25977 C 1082.8713 756.22375 1088.7412 760.39864 1100.2148 765.77344 C 1116.4632 773.38482 1118.478 773.77672 1120.8848 769.79492 C 1128.8924 756.54756 1129.4142 757.03008 1126.998 775.43164 C 1125.6682 785.55902 1122.8492 800.6181 1120.7324 808.89648 C 1118.6158 817.17488 1116.8848 824.72066 1116.8848 825.66406 C 1116.8848 826.61246 1127.9084 827.03508 1141.3828 826.61328 L 1165.8809 825.8457 L 1169.332 812.51172 C 1173.9638 794.61056 1173.7762 792.51172 1167.5508 792.51172 C 1162.971 792.51172 1162.2136 790.72248 1162.1816 779.8457 C 1162.1616 772.87912 1161.4726 764.67333 1160.6504 761.61133 C 1159.339 756.72673 1160.1187 756.18567 1167.0117 757.19727 C 1175.5679 758.45305 1183.0902 752.32118 1203.3926 727.54492 L 1213.7402 714.91992 L 1202.0898 703.04883 C 1195.6828 696.52029 1189.1901 691.1958 1187.6621 691.2168 C 1186.1341 691.2379 1181.566 697.27287 1177.5098 704.62695 C 1169.6604 718.85801 1158.9687 726.33002 1153.8203 721.18164 C 1151.7045 719.06598 1154.2944 712.66832 1163.2246 697.95898 C 1170.0038 686.79282 1175.5508 676.64492 1175.5508 675.4082 C 1175.5508 674.1715 1171.9901 671.68521 1167.6387 669.88281 C 1163.2873 668.08041 1158.3413 664.93478 1156.6465 662.89258 C 1154.8868 660.77233 1153.1875 659.55459 1151.4297 659.32422 z M 1299.3555 688.51172 C 1296.7371 688.51172 1295.5549 690.26723 1296.2109 693.17969 C 1297.4161 698.52935 1286.0297 723.17969 1282.3535 723.17969 C 1278.0521 723.17969 1268.8848 707.92452 1268.8848 700.76758 C 1268.8848 696.51874 1267.3998 693.8457 1265.041 693.8457 C 1259.2514 693.8457 1257.6886 698.26866 1261.9668 702.54688 C 1264.0562 704.63614 1266.5329 712.23407 1267.4707 719.42969 C 1268.4083 726.62531 1269.7421 735.25238 1270.4355 738.60156 C 1271.6663 744.54496 1272.3834 744.67355 1300.291 743.93555 L 1328.8848 743.17969 L 1331.0996 724.77344 C 1332.3178 714.6504 1335.0278 704.65379 1337.123 702.55859 C 1341.4106 698.27109 1339.8557 693.8457 1334.0605 693.8457 C 1331.6089 693.8457 1330.2168 696.61173 1330.2168 701.48633 C 1330.2168 709.03451 1321.4319 723.17969 1316.7441 723.17969 C 1313.0939 723.17969 1303.5508 703.00208 1303.5508 695.28516 C 1303.5508 690.9023 1302.0705 688.51172 1299.3555 688.51172 z M 1578.8398 716.68945 C 1575.3154 717.17275 1572.9383 720.19835 1569.0098 726.13477 C 1563.488 734.47855 1562.5134 737.71297 1565.0508 739.28125 C 1570.4852 742.63985 1552.3809 769.13514 1546.0293 767.11914 C 1542.4607 765.98674 1540.004 767.81145 1536.8262 773.95703 C 1534.4418 778.56803 1532.8787 782.61331 1533.3535 782.94531 C 1538.2553 786.37351 1554.9952 795.17969 1556.6094 795.17969 C 1557.7568 795.17969 1560.1317 792.02415 1561.8887 788.16797 C 1563.6457 784.31177 1565.7062 781.77846 1566.4668 782.53906 C 1567.7256 783.79786 1561.6513 810.6 1557.8809 820.42578 C 1556.5645 823.85618 1559.3109 824.51172 1575.0039 824.51172 C 1593.5711 824.51172 1593.7148 824.45742 1596.623 816.11523 C 1600.4794 805.05287 1600.3242 803.17969 1595.5508 803.17969 C 1592.5968 803.17969 1591.5508 800.08856 1591.5508 791.35938 C 1591.5508 781.85698 1592.6038 779.20514 1596.918 777.83594 C 1605.1486 775.22354 1615.5508 758.02217 1615.5508 747.02539 C 1615.5508 736.65711 1609.7596 729.55451 1595.5508 722.49609 C 1587.0355 718.26605 1582.3643 716.20616 1578.8398 716.68945 z M 1225.7852 718.6582 C 1221.5023 719.04194 1218.9168 722.34537 1217.2441 729.17969 C 1215.4687 736.43379 1215.5925 736.51172 1228.6523 736.51172 C 1240.2783 736.51172 1242.5346 735.5563 1247.5508 728.51172 L 1253.248 720.51172 L 1244.3984 720.47656 C 1239.5318 720.45656 1233.1502 719.8398 1230.2168 719.10742 C 1229.3358 718.88747 1228.5076 718.74148 1227.7266 718.66992 C 1227.0431 718.60731 1226.397 718.60338 1225.7852 718.6582 z M 1504.1641 732.95508 C 1503.4007 733.02191 1501.4017 734.28554 1499.3535 736.03516 C 1493.6443 740.91207 1486.3497 743.76876 1481.7988 742.91211 C 1479.822 742.53999 1474.9307 740.02803 1470.9297 737.33008 C 1460.2801 730.14894 1462.0556 733.48313 1473.832 742.78125 L 1484.0078 750.81641 L 1488.875 747.31445 C 1496.3285 741.94887 1505.3101 733.67352 1504.4121 733 C 1504.3569 732.95862 1504.2731 732.94553 1504.1641 732.95508 z M 1418.2168 734.21094 L 1398.0117 734.29102 C 1379.2123 734.36472 1377.142 734.95345 1368.2598 742.75195 C 1363.0094 747.36195 1356.5282 755.94307 1353.8574 761.82227 C 1347.9108 774.91203 1347.4128 797.22565 1352.8926 805.04883 C 1357.649 811.83961 1373.3268 817.56025 1382.418 815.82227 C 1387.734 814.80607 1388.8848 815.66817 1388.8848 820.66797 C 1388.8848 826.68455 1389.0013 826.70513 1399.5527 822.56055 L 1410.2188 818.36914 L 1410.248 803.44141 C 1410.264 795.23061 1411.0499 783.83512 1411.9941 778.11914 L 1413.7109 767.72656 L 1405.9648 769.82812 C 1401.7044 770.98412 1394.0201 772.67684 1388.8867 773.58984 C 1381.6985 774.86824 1379.3465 776.70333 1378.6543 781.57031 C 1377.8705 787.08191 1378.6373 787.72071 1384.6543 786.57031 C 1392.5323 785.06451 1394.0956 788.68015 1386.5957 791.06055 C 1373.0303 795.36593 1368.5583 782.30768 1378.1895 766.51172 C 1384.261 756.55354 1392.8614 755.03341 1395.082 763.52539 C 1396.1104 767.45739 1397.9147 768.68839 1400.9453 767.52539 C 1403.3529 766.60159 1408.2249 765.8457 1411.7715 765.8457 C 1417.8671 765.8457 1418.2188 764.98066 1418.2188 750.0293 L 1418.2168 734.21094 z M 1629.6602 738.51172 C 1628.6202 738.14506 1626.3867 744.74631 1624.6973 753.17969 C 1621.7901 767.69245 1621.9064 768.51172 1626.873 768.51172 C 1630.7612 768.51172 1631.661 769.7133 1630.3438 773.14648 C 1629.3658 775.69508 1627.8853 785.05814 1627.0547 793.95312 C 1625.3369 812.3495 1630.1758 820.94045 1640.6152 818.03125 C 1658.4896 813.05025 1658.2168 813.0338 1658.2168 819.17578 C 1658.2168 823.46478 1659.3713 824.64084 1662.4355 823.46484 C 1664.7553 822.57464 1669.3847 821.8457 1672.7227 821.8457 C 1678.5701 821.8457 1678.8586 820.75024 1680.6016 791.8457 C 1681.5966 775.34574 1683.0998 757.94627 1683.9434 753.17969 C 1685.396 744.97151 1685.0496 744.51172 1677.3984 744.51172 C 1662.513 744.51172 1661.3474 746.07805 1659.375 768.69141 C 1658.286 781.17377 1656.0578 790.98553 1653.9082 792.76953 C 1647.1718 798.36033 1646.459 787.25538 1651.9824 762.76562 L 1657.3027 739.17969 L 1644.4258 739.17969 C 1637.344 739.17969 1630.7 738.8784 1629.6602 738.51172 z M 1232.2559 747.2832 C 1227.7721 747.1157 1221.9912 747.6245 1215.8848 748.8457 C 1208.105 750.4017 1207.5508 751.27265 1207.5508 761.95703 C 1207.5508 768.25141 1208.7481 773.80202 1210.2109 774.29102 C 1211.9143 774.86002 1211.4355 783.33174 1208.8809 797.8457 C 1206.6865 810.31248 1204.8887 821.41172 1204.8887 822.51172 C 1204.8887 824.94592 1214.6084 825.1011 1225.8848 822.8457 C 1233.819 821.2589 1234.2168 820.56942 1234.2168 808.47266 C 1234.2168 801.48466 1236.0684 786.00483 1238.332 774.07227 C 1240.5956 762.13969 1241.7254 751.20674 1240.8418 749.77734 C 1239.9249 748.29376 1236.7396 747.4507 1232.2559 747.2832 z M 1587.9824 750.16602 C 1588.6766 750.05812 1588.7519 751.35852 1588.7949 753.97852 C 1588.8439 756.9851 1587.4436 760.8865 1585.6836 762.64648 C 1577.6126 770.71748 1575.7339 764.08597 1583.4629 754.80859 C 1585.9765 751.79141 1587.2882 750.27392 1587.9824 750.16602 z M 1282.166 752.51172 C 1267.9134 752.51172 1267.5236 753.03699 1270.543 768.13477 C 1271.455 772.69415 1273.1427 775.84306 1274.2949 775.13086 C 1275.4471 774.41886 1276.8003 780.44054 1277.3027 788.51172 C 1277.8053 796.5831 1277.3167 803.18364 1276.2168 803.18164 C 1275.1168 803.17964 1274.2168 807.80368 1274.2168 813.45508 L 1274.2168 823.72852 L 1288.2168 822.44531 C 1295.9168 821.73871 1302.633 820.79882 1303.1406 820.35742 C 1303.6482 819.91622 1302.8986 814.0926 1301.4746 807.41602 C 1298.2082 792.10044 1301.7677 793.80243 1306.4961 809.81641 C 1309.8961 821.33177 1310.4796 821.8457 1320.1328 821.8457 L 1330.2168 821.8457 L 1330.2168 791.39648 C 1330.2168 774.64992 1329.4898 759.05047 1328.5996 756.73047 C 1327.4962 753.85527 1323.5795 752.51172 1316.2969 752.51172 L 1305.6113 752.51172 L 1307.2676 765.17969 L 1308.9238 777.8457 L 1302.1855 765.17969 C 1295.5297 752.66511 1295.2882 752.51172 1282.166 752.51172 z M 1460.1055 792.92188 C 1460.8936 792.92772 1461.6831 794.04189 1461.9688 796.25977 C 1462.3894 799.5281 1468.1433 804.00977 1471.918 804.00977 C 1474.3047 804.00977 1480.4034 810.14659 1481.4004 813.55078 C 1481.9149 815.30971 1481.9253 817.71714 1481.4238 818.90234 C 1480.4501 821.20302 1478.8891 821.45051 1474.2363 820.03711 C 1469.9036 818.72102 1457.6884 800.53892 1458.2441 796.23242 C 1458.5297 794.01876 1459.3173 792.91603 1460.1055 792.92188 z M 1507.8027 793.52539 C 1508.6282 793.37308 1509.1172 794.44908 1509.1172 796.78125 C 1509.1172 801.07671 1498.7248 817.22918 1494.5508 819.42188 C 1492.8379 820.32163 1491.0996 821.01896 1490.6875 820.97266 C 1481.9351 819.99023 1486.7995 806.75507 1497.0996 803.52734 C 1500.9066 802.33435 1502.7941 800.82508 1504.4629 797.63867 C 1505.815 795.057 1506.9773 793.6777 1507.8027 793.52539 z M 1480.3457 824.5332 C 1485.4446 824.52092 1492.1296 825.00988 1493.1348 825.76367 C 1493.6648 826.16132 1493.4173 827.30336 1492.584 828.30078 C 1491.0867 830.09289 1482.7198 831.01878 1477.6289 829.95508 C 1474.9414 829.39354 1473.166 826.70808 1474.4512 825.14844 C 1474.7981 824.72744 1477.2864 824.54057 1480.3457 824.5332 z " /><path
       style="fill:#ffffff;stroke-width:1.96996"
       d="m 1384.288,584.07216 c -2.8828,-1.94195 -12.5948,-14.27877 -21.5822,-27.41517 l -16.3402,-23.88427 -1.6248,-18.04708 c -1.7194,-19.09238 -4.0392,-23.58993 -28.4692,-55.19138 -14.9414,-19.3275 -9.6344,-41.30371 16.1696,-66.9595 l 5.4536,-5.42231 -7.9582,-7.81946 c -7.3287,-7.20062 -7.797,-8.35793 -5.92,-14.62344 2.4103,-8.04549 0.176,-17.19189 -7.7008,-31.5413 -3.0909,-5.62986 -7.1734,-15.8522 -9.0721,-22.71628 -3.7455,-13.5403 -4.7046,-41.25949 -1.4279,-41.25949 3.675,0 27.0692,18.42594 36.1794,28.49581 12.856,14.20997 25.2726,33.27533 32.5508,49.98116 5.1261,11.76614 7.0937,14.39484 10.4321,13.93732 9.3019,-1.27478 21.3542,-0.59519 24.5329,1.38328 3.818,2.37643 4.9517,0.7853 11.5242,-16.17132 9.2236,-23.7956 35.9222,-57.43068 56.0203,-70.57478 10.3988,-6.80069 11.54,-5.67254 12.8243,12.67582 0.9082,12.97839 0.2866,15.39807 -9.532,37.1062 -8.3978,18.56668 -10.5065,25.54394 -10.5186,34.80162 -0.018,8.6852 -1.1446,12.8583 -4.5345,16.69723 -5.8702,6.64802 -5.7166,8.76617 1.1242,15.49268 3.1202,3.06826 8.854,12.6991 12.7418,21.40188 5.7558,12.88482 6.9113,17.90565 6.2235,27.03701 -0.7732,10.26251 -2.0342,12.6576 -14.8628,28.23376 -18.0346,21.89696 -18.7992,23.57073 -21.3113,46.66252 -2.0954,19.26193 -2.2129,19.54927 -15.7603,38.59725 -7.507,10.55498 -13.6646,20.63097 -13.6838,22.39113 -0.066,5.99269 -4.0058,8.09654 -17.2069,9.18631 -11.1904,0.9238 -13.7692,0.57724 -18.2711,-2.4552 z m 27.2393,-9.84661 c 1.3343,-1.59704 1.7312,-3.42465 0.8826,-4.06136 -2.575,-1.93113 -28.4353,-2.78263 -29.9165,-0.98504 -2.0578,2.49725 0.7836,6.79501 5.0868,7.69413 8.1514,1.70317 21.5497,0.22175 23.9471,-2.64773 z m -17.8691,-15.04784 c 0.803,-1.89772 0.7854,-5.75464 -0.038,-8.57099 -1.5964,-5.4507 -11.3608,-15.27497 -15.1823,-15.27497 -6.044,0 -15.2579,-7.17689 -15.9316,-12.41007 -0.9147,-7.10242 -5.0478,-7.13312 -5.9624,-0.0442 -0.8898,6.89545 18.6671,36.00824 25.6045,38.11553 7.45,2.2631 9.9521,1.86854 11.5112,-1.81525 z m 21.018,0.83096 c 6.6833,-3.5109 23.3222,-29.37473 23.3222,-36.25251 0,-7.46842 -3.122,-6.89239 -7.4519,1.37501 -2.672,5.10199 -5.6926,7.51767 -11.7883,9.42785 -16.4922,5.16816 -24.2823,26.36132 -10.2682,27.93436 0.6599,0.0741 3.4435,-1.04404 6.1862,-2.48471 z m -18.1591,-46.11835 c 4.2864,-0.653 10.2962,-0.23894 14.2188,0.97967 14.6264,4.54385 16.71,-3.1111 8.6692,-31.85119 -4.3416,-15.51972 -5.4515,-17.55488 -9.0987,-16.68671 -2.2845,0.54381 -4.1536,0.23209 -4.1536,-0.6927 0,-4.19773 3.1777,-7.07859 7.8083,-7.07859 5.5426,0 12.4211,-4.87902 18.0383,-12.79516 6.0506,-8.52671 12.1124,-12.79515 18.1716,-12.79515 3.1662,0 6.3892,0.76772 7.1624,1.70604 0.7732,0.93828 0,1.706 -1.7058,1.706 -1.7113,0 -4.9777,1.02361 -7.259,2.27466 -3.9319,2.15625 -3.9463,2.50547 -0.2734,6.70967 2.9803,3.41115 3.3133,5.22179 1.4432,7.84285 -3.7987,5.32315 -14.9547,10.46916 -22.6959,10.46916 -5.2366,0 -7.0101,0.76528 -6.9188,2.98555 0.187,4.54877 14.7718,33.43679 17.1859,34.04035 1.1663,0.29164 4.5897,-4.90876 7.6073,-11.5564 3.0174,-6.64764 11.5933,-20.16488 19.057,-30.03827 l 13.5705,-17.95164 -2.6401,-8.57781 c -3.0897,-10.0394 -19.5461,-37.14262 -22.5519,-37.14262 -1.1352,0 -3.9933,2.687 -6.3515,5.97108 -5.7514,8.00988 -8.3387,7.52886 -6.8822,-1.27952 0.6593,-3.98782 1.8278,-12.62455 2.5967,-19.19274 2.9322,-25.04763 13.8641,-54.34746 28.4847,-76.34444 10.6195,-15.9767 7.0922,-17.89171 -6.2845,-3.41204 -17.5358,18.98231 -27.9739,36.52837 -36.189,60.83481 -3.1747,9.39301 -6.3039,17.72334 -6.9536,18.51187 -0.6496,0.78853 -4.8692,-0.67608 -9.3768,-3.25463 -10.0192,-5.73152 -19.6107,-5.62505 -27.8699,0.30942 -6.9172,4.97039 -11.2938,5.40924 -11.2938,1.13239 0,-4.72199 -10.1858,-32.46693 -15.7815,-42.98692 -10.1435,-19.07027 -33.022,-46.06258 -39.0422,-46.06258 -1.0768,0 1.5568,4.79819 5.8524,10.66263 12.0109,16.39756 25.6313,49.01632 29.411,70.43468 4.6163,26.15821 5.5583,36.58071 3.397,37.58247 -1.0228,0.4742 -3.9673,-2.23575 -6.5427,-6.02214 -2.5756,-3.78638 -5.4638,-6.88434 -6.4183,-6.88434 -0.9543,0 -6.5912,7.10133 -12.5264,15.7807 -9.3981,13.74407 -10.7828,17.1066 -10.7292,26.05463 0.053,8.7432 1.0304,11.15789 6.5639,16.20719 8.553,7.8049 15.5144,18.23283 23.3223,34.93563 3.509,7.50648 7.6926,13.64815 9.2969,13.64815 2.8749,0 14.8834,-24.8713 16.0305,-33.20169 0.4983,-3.61946 -0.5727,-4.34474 -7.7561,-5.25216 -16.6078,-2.0979 -26.6792,-11.42985 -20.4322,-18.93218 3.9598,-4.75553 3.2347,-6.092 -4.3871,-8.08472 -7.4277,-1.9419 -7.1648,-5.32911 0.4134,-5.32911 5.4154,0 13.4584,6.17831 23.8748,18.33973 5.0064,5.84493 9.2341,8.9566 12.1691,8.9566 5.9663,0 10.8108,6.33804 5.4475,7.12671 -2.7263,0.40092 -5.1577,5.18319 -8.9531,17.6106 -5.9666,19.53507 -6.7008,28.24635 -2.6413,31.33971 2.7297,2.08022 6.0322,1.97701 23.9159,-0.7475 z m -15.0148,-76.59511 c -18.8561,-14.88792 -21.698,-20.22698 -4.6462,-8.72871 6.4063,4.31988 14.238,8.34184 17.4032,8.93767 7.2868,1.37164 18.9646,-3.20418 28.106,-11.01297 3.7481,-3.20164 7.3933,-5.38742 8.0999,-4.8573 1.4378,1.07842 -12.9421,14.32579 -24.8765,22.91703 l -7.7922,5.60938 z"
       id="path236-8" /><path
       style="fill:#000000;stroke-width:1.33333"
       id="path250"
       d="" /></g></svg>
